<?xml version="1.0" standalone="no"?>
<!DOCTYPE svg PUBLIC "-//W3C//DTD SVG 20010904//EN"
 "http://www.w3.org/TR/2001/REC-SVG-20010904/DTD/svg10.dtd">
<svg version="1.0" xmlns="http://www.w3.org/2000/svg"
 width="437.000000pt" height="437.000000pt" viewBox="0 0 437.000000 437.000000"
 preserveAspectRatio="xMidYMid meet">
<metadata>
Created by potrace 1.14, written by Peter Selinger 2001-2017
</metadata>
<g transform="translate(0.000000,437.000000) scale(0.100000,-0.100000)"
fill="#000000" stroke="none">
<path d="M0 2195 l0 -2175 2175 0 2175 0 0 2175 0 2175 -2175 0 -2175 0 0
-2175z m968 1942 c6 -7 9 -23 6 -34 -5 -18 -2 -21 14 -16 11 2 23 14 25 25 7
24 30 19 35 -6 4 -20 -34 -66 -54 -66 -14 0 -37 -71 -32 -98 2 -11 16 -19 38
-22 29 -4 36 -10 43 -40 5 -19 14 -53 20 -75 l12 -40 3 58 c3 53 5 57 27 57
24 0 25 -2 25 -69 0 -39 5 -73 10 -76 23 -14 7 -25 -35 -25 -42 0 -45 2 -63
43 -31 70 -60 93 -113 89 -35 -3 -48 1 -63 17 -17 18 -17 22 -2 51 11 24 13
38 5 58 l-11 27 -23 -45 c-30 -57 -33 -132 -6 -176 34 -56 90 -74 232 -74 162
0 164 2 164 107 -1 103 -27 154 -97 186 -50 23 -58 34 -33 43 42 17 135 -64
154 -133 14 -48 14 -127 1 -174 -14 -51 -39 -59 -193 -59 -109 0 -139 4 -172
20 -78 37 -115 90 -115 167 0 43 45 150 77 184 18 20 24 35 21 60 -3 29 0 34
19 34 12 0 25 4 29 8 12 11 41 8 52 -6z m708 -12 c13 -13 27 -39 31 -56 5 -25
14 -35 45 -47 35 -14 38 -18 38 -54 0 -21 -4 -38 -10 -38 -5 0 -10 -13 -10
-29 0 -25 -4 -30 -27 -33 -25 -3 -28 -7 -31 -46 -2 -28 -7 -42 -15 -39 -8 2
-14 50 -17 151 -6 189 -4 186 -161 186 -97 0 -109 -2 -119 -19 -11 -21 -14
-124 -4 -134 3 -3 19 10 36 29 18 21 39 34 54 34 17 0 23 5 22 18 -3 38 3 52
21 52 24 0 44 -24 39 -47 -3 -13 5 -21 27 -29 36 -13 55 -46 55 -96 0 -44 -19
-51 -43 -15 -8 12 -18 19 -22 15 -5 -4 -11 -43 -15 -85 -4 -43 -13 -91 -19
-106 -6 -16 -11 -30 -11 -33 0 -13 70 -1 99 17 43 26 53 16 18 -19 -27 -26
-30 -27 -146 -27 -85 0 -122 4 -134 14 -15 12 -17 40 -17 225 0 152 3 215 12
224 8 8 55 12 145 12 129 0 135 -1 159 -25z m637 16 c13 -5 27 -17 31 -27 4
-10 9 -84 12 -165 6 -151 -1 -189 -31 -189 -15 0 -16 8 -21 260 0 30 -1 61 -2
68 -2 10 -41 12 -174 10 l-173 -3 -3 -182 c-2 -151 0 -183 12 -183 7 0 16 13
19 30 7 34 43 48 76 31 17 -9 22 -8 32 11 7 13 12 37 11 55 -2 17 2 34 7 37
12 8 3 42 -15 57 -11 9 -14 7 -14 -8 0 -26 -35 -57 -55 -49 -8 3 -19 16 -25
30 -5 13 -17 29 -26 34 -15 9 -16 12 -5 26 17 20 33 16 37 -8 3 -23 24 -47 35
-40 5 3 9 18 9 34 0 19 7 33 20 40 11 6 20 21 20 34 0 28 22 49 47 44 13 -3
17 -11 15 -31 -2 -23 1 -27 22 -27 16 0 32 -11 47 -31 16 -23 24 -28 30 -17
12 18 11 7 -2 -31 -13 -36 -19 -38 -44 -11 -19 20 -19 20 -32 -11 -12 -29 -11
-33 12 -55 34 -31 47 -70 40 -116 -6 -36 -5 -38 19 -38 15 0 30 -8 36 -20 11
-20 8 -20 -167 -20 -98 0 -183 4 -190 8 -14 9 -29 350 -19 407 5 24 15 39 29
45 29 12 349 12 380 1z m1193 -2 c3 -6 1 -15 -5 -19 -8 -5 -10 -19 -6 -42 10
-51 -7 -76 -53 -80 -32 -3 -38 -7 -49 -38 -11 -34 -10 -35 19 -48 l31 -13 -5
-76 c-5 -66 -3 -74 8 -58 8 10 14 22 14 25 0 4 11 12 25 18 50 23 108 -33 90
-87 -8 -26 -49 -45 -83 -38 -16 3 -34 1 -40 -5 -6 -6 -46 -9 -102 -7 -86 4
-93 6 -116 32 -25 30 -32 75 -13 94 7 7 12 29 13 50 1 35 3 38 27 36 22 -1 26
2 22 18 -3 10 -12 19 -19 19 -9 0 -14 12 -14 36 0 27 7 42 30 62 22 19 30 35
30 58 0 47 9 64 35 64 30 0 49 -24 43 -54 -4 -20 0 -25 24 -28 15 -3 30 -2 33
0 9 10 5 62 -5 62 -5 0 -10 7 -10 15 0 18 65 21 76 4z m347 -6 c8 -10 17 -31
19 -48 2 -24 8 -31 30 -33 40 -5 88 -64 89 -110 2 -49 -2 -105 -8 -116 -10
-15 -23 19 -23 60 0 27 -7 50 -20 65 l-19 24 -1 -27 c0 -15 5 -30 11 -34 11
-6 8 -66 -4 -94 -6 -11 0 -15 23 -16 16 -1 36 -7 45 -14 20 -17 19 -63 -3 -90
-16 -19 -29 -23 -88 -24 l-69 -1 1 92 c2 76 6 97 23 122 21 29 21 29 1 24 -26
-7 -57 20 -65 56 -4 16 -18 32 -37 41 -18 8 -36 23 -42 33 -9 16 -4 24 28 53
22 19 45 34 53 34 7 0 13 5 13 10 0 16 26 12 43 -7z m-3269 1 c12 -5 16 -21
16 -69 0 -67 -6 -75 -55 -75 -19 0 -24 -6 -27 -34 -4 -33 -2 -34 36 -39 46 -6
56 -19 56 -69 l0 -38 54 0 c61 0 81 -15 42 -30 -31 -12 -34 -36 -5 -43 40 -11
7 -27 -55 -27 l-62 0 -19 70 c-14 51 -24 70 -36 70 -9 0 -19 -11 -23 -24 -3
-13 -28 -43 -56 -66 -27 -23 -50 -46 -50 -51 0 -4 38 -10 85 -11 126 -4 107
-23 -24 -23 -103 0 -138 7 -116 23 6 4 18 24 27 44 10 20 28 44 42 53 23 15
24 20 19 98 -9 148 -3 216 18 230 26 16 49 1 49 -31 0 -34 44 -63 54 -36 3 9
3 20 0 25 -6 10 3 59 10 59 3 0 11 -3 20 -6z m2403 -14 c17 -10 36 -27 42 -38
5 -10 11 -104 13 -208 l3 -189 -300 0 -300 0 -3 72 c-4 88 14 113 78 113 77 0
152 56 189 141 44 98 87 128 186 129 42 0 69 -6 92 -20z m817 -321 c49 -39 22
-119 -41 -119 -63 0 -87 80 -37 119 15 12 32 21 39 21 7 0 24 -9 39 -21z
m-2803 -279 c42 -23 50 -60 47 -227 -2 -120 -6 -158 -16 -158 -9 0 -13 39 -15
161 -2 145 -4 164 -22 184 -19 21 -22 21 -332 18 -239 -2 -313 0 -313 9 0 30
36 33 333 28 172 -3 307 -10 318 -15z m2959 -5 c57 -30 60 -41 60 -253 0 -203
-7 -239 -48 -261 -10 -5 -125 -11 -257 -12 -258 -4 -272 -1 -294 48 -15 33
-15 404 0 437 23 49 55 56 292 56 174 0 224 -3 247 -15z m-3340 -51 c0 -3 -11
-20 -25 -38 -33 -43 -32 -52 9 -66 29 -9 41 -8 68 6 42 21 49 33 35 56 -10 16
-9 22 7 34 26 19 51 18 71 -2 19 -20 13 -62 -12 -81 -9 -7 -15 -14 -12 -15 2
-2 18 -11 34 -20 26 -15 30 -23 33 -67 3 -46 5 -51 27 -51 39 0 55 -25 55 -86
0 -30 5 -54 10 -54 6 0 10 -13 10 -30 l0 -30 64 0 c68 0 96 -6 96 -21 0 -5
-32 -9 -71 -9 -57 0 -70 -3 -66 -14 4 -9 -3 -16 -19 -19 -35 -6 -74 3 -74 19
0 11 -29 14 -149 14 l-150 0 -3 -35 c-2 -20 -7 -35 -13 -35 -5 0 -11 15 -13
35 l-3 35 -65 0 c-63 0 -65 -1 -59 -22 13 -42 41 -83 66 -95 15 -8 70 -13 144
-14 66 0 129 -4 140 -9 12 -5 -41 -9 -138 -9 -184 -1 -204 5 -239 77 -24 52
-21 118 11 179 10 22 22 56 26 76 12 60 28 32 22 -37 -3 -33 -9 -71 -13 -83
-5 -19 -2 -23 15 -23 12 0 21 6 21 15 0 8 7 15 15 15 8 0 15 -7 15 -15 0 -11
12 -15 44 -15 36 0 44 3 42 18 -1 13 6 17 28 15 l28 -2 -6 60 c-5 45 -15 72
-37 102 -21 29 -29 50 -26 67 5 22 -1 28 -56 53 -48 21 -77 27 -129 27 -68 0
-91 14 -42 26 14 4 65 4 113 2 l87 -5 33 38 c29 35 51 49 51 33z m1519 -213
c27 -25 31 -36 31 -79 0 -35 4 -52 15 -56 21 -8 19 -49 -5 -79 -11 -14 -20
-29 -20 -34 0 -30 -26 -89 -47 -109 -58 -54 -127 -16 -152 81 -6 26 -21 60
-33 75 -11 16 -18 36 -15 44 10 25 25 19 32 -14 4 -16 11 -28 17 -27 6 1 17
-27 25 -62 7 -36 15 -67 18 -69 12 -12 -3 116 -25 223 -12 60 0 99 39 120 43
23 85 18 120 -14z m465 15 c50 -21 76 -60 76 -117 0 -39 3 -47 15 -43 24 10
19 -58 -7 -91 -12 -16 -23 -47 -26 -76 -4 -45 -2 -50 29 -76 18 -15 41 -36 51
-45 14 -14 22 -15 52 -6 51 16 105 -3 150 -52 20 -22 36 -49 36 -59 0 -15 10
-20 47 -26 37 -5 56 -16 88 -47 25 -26 35 -43 27 -45 -8 -3 -4 -12 13 -25 15
-12 25 -30 25 -45 0 -15 3 -23 6 -20 4 4 10 75 13 159 l7 153 25 -50 c23 -48
24 -59 24 -235 0 -174 -1 -188 -23 -232 -13 -27 -28 -48 -33 -48 -5 0 -9 36
-9 81 0 73 -2 80 -17 74 -59 -25 -118 -12 -154 34 -11 14 -41 37 -67 51 -55
30 -92 80 -92 125 0 39 13 51 66 64 l39 9 -38 1 c-44 1 -92 -21 -107 -49 -18
-35 -81 -74 -139 -87 l-56 -13 64 3 c61 3 67 6 97 41 18 21 38 35 43 31 22
-13 10 -49 -29 -86 -39 -37 -40 -40 -35 -91 2 -29 8 -69 12 -88 5 -19 7 -47 5
-62 l-3 -28 -159 0 c-87 0 -165 3 -174 6 -20 8 -20 30 -2 82 l15 40 -55 33
c-46 28 -104 90 -104 111 0 3 18 -1 40 -8 43 -15 102 -10 155 12 28 11 26 12
-33 12 -95 0 -129 22 -174 112 -21 41 -39 80 -41 85 -3 6 -7 8 -10 5 -3 -3 6
-39 20 -79 20 -62 25 -93 24 -176 -1 -56 -8 -128 -16 -160 -12 -46 -13 -70 -5
-114 6 -31 13 -116 17 -188 l6 -133 -90 0 c-80 0 -92 2 -110 23 -39 41 -46 97
-28 215 20 128 26 143 75 207 31 41 40 61 45 110 6 58 -7 230 -18 242 -3 3
-26 -10 -52 -28 -45 -32 -45 -33 -80 -16 -20 9 -40 17 -45 17 -13 0 -13 -191
1 -264 10 -54 9 -58 -15 -87 -33 -39 -40 -68 -28 -111 6 -23 5 -77 -4 -164 -7
-71 -13 -132 -13 -136 -1 -5 -19 -8 -41 -8 -38 0 -40 1 -40 33 0 17 10 95 21
172 25 160 24 153 10 261 -12 93 0 296 25 427 5 25 10 28 37 25 29 -3 32 -7
35 -39 3 -31 8 -39 42 -54 l38 -17 44 30 c42 29 43 32 43 83 0 51 2 54 26 57
35 4 59 -22 59 -64 l0 -35 138 7 c99 5 145 3 163 -5 l24 -12 -23 20 c-12 11
-28 21 -34 23 -19 7 1 27 57 59 29 16 59 38 66 47 11 14 11 15 -1 5 -8 -7 -31
-13 -51 -13 -29 0 -43 7 -63 31 -14 17 -26 37 -26 44 0 7 -12 27 -26 44 -26
31 -37 81 -18 88 5 2 15 -9 21 -24 9 -24 11 -17 12 52 2 87 15 116 61 134 34
13 46 13 84 -3z m1225 -402 c17 -4 42 -17 56 -30 l25 -23 0 -286 0 -287 -29
-29 -29 -29 -152 0 c-85 0 -160 5 -171 10 -44 24 -49 54 -49 320 0 359 -4 353
236 358 45 1 95 -1 113 -4z m-2084 -69 c38 -8 80 -15 92 -15 16 0 23 -6 23
-19 0 -22 -19 -31 -62 -31 -19 0 -43 -11 -65 -30 -31 -28 -39 -30 -112 -30
-64 0 -86 -4 -125 -25 -26 -14 -56 -25 -67 -25 -19 0 -19 1 -3 33 28 53 76
107 119 133 47 28 98 30 200 9z m-836 -80 c16 -8 31 -22 33 -32 7 -27 -3 -193
-12 -193 -14 0 -20 31 -20 109 0 47 -5 82 -12 89 -18 18 -501 17 -516 -1 -7
-8 -13 -67 -14 -137 -2 -88 -7 -125 -15 -128 -10 -3 -13 29 -13 137 0 133 1
141 22 155 32 23 504 24 547 1z m198 -200 l6 -152 27 15 c24 14 27 20 19 40
-11 28 0 52 37 81 32 25 71 27 101 6 l22 -16 -27 -44 c-24 -41 -53 -63 -75
-57 -5 1 -5 -3 -1 -9 7 -12 83 -8 117 6 27 11 21 -13 -12 -46 -16 -16 -34 -44
-41 -63 -6 -18 -20 -42 -31 -52 -27 -24 -91 -24 -117 -1 -17 16 -20 16 -26 2
-8 -21 -42 -4 -52 27 -14 43 -4 349 13 408 14 50 16 53 24 31 5 -13 12 -92 16
-176z m-379 131 c2 -10 -5 -31 -17 -46 -17 -23 -18 -29 -6 -34 8 -3 15 -17 15
-31 0 -20 6 -27 30 -32 45 -8 53 -31 41 -114 -5 -39 -7 -78 -4 -86 3 -8 30
-25 60 -38 30 -14 52 -29 49 -34 -3 -5 -44 -9 -91 -10 -96 0 -105 6 -88 62 5
18 7 55 5 84 l-4 52 -26 -19 c-37 -26 -100 -37 -107 -18 -4 10 -15 13 -30 10
-14 -2 -36 3 -50 12 -35 23 -42 20 -15 -9 19 -20 22 -31 16 -66 -10 -64 -33
-108 -61 -119 -29 -11 -75 2 -76 22 0 7 -4 3 -9 -9 -11 -26 -23 -29 -39 -9
-14 17 2 90 25 115 12 13 16 12 34 -4 l20 -18 -15 37 c-20 46 -13 69 35 122
25 28 40 55 45 83 9 53 35 71 115 78 39 4 60 10 60 19 0 30 83 30 88 0z m1082
-9 c-19 -12 -55 -37 -79 -54 -24 -18 -53 -33 -65 -33 -12 0 -27 -4 -35 -9 -11
-7 -3 -13 28 -22 34 -10 52 -10 92 0 28 7 53 11 56 7 3 -3 -1 -23 -8 -43 -14
-36 -17 -38 -64 -41 -75 -5 -112 6 -155 44 -46 41 -67 93 -50 123 17 32 44 41
107 35 32 -3 83 -1 113 4 91 16 100 14 60 -11z m-303 -130 c43 -90 116 -146
188 -147 17 0 35 -4 40 -9 6 -6 9 -72 7 -155 l-3 -146 -145 0 c-116 0 -144 3
-144 14 0 7 14 57 30 111 34 111 37 155 13 191 -18 28 -32 184 -16 184 5 0 18
-19 30 -43z m1327 -338 c24 -62 56 -178 56 -206 0 -10 -49 -13 -214 -13 l-214
0 -21 51 c-27 62 -30 163 -6 208 l15 31 173 2 c94 2 175 1 178 -2 4 -3 18 -35
33 -71z m1112 -69 c18 -12 36 -31 40 -43 4 -12 16 -28 27 -36 41 -29 57 -88
56 -211 -1 -133 -15 -203 -43 -208 -16 -3 -17 1 -11 37 l7 41 -277 0 -276 0 3
-32 c4 -38 -16 -48 -34 -16 -9 16 -14 78 -16 198 l-3 175 27 41 c46 71 54 73
273 74 178 0 196 -2 227 -20z m-3216 -39 c19 -10 48 -37 63 -60 20 -28 39 -44
58 -48 32 -6 69 -45 69 -74 0 -11 9 -19 23 -21 21 -3 22 -7 22 -90 0 -78 -3
-90 -23 -110 -22 -22 -28 -23 -265 -26 -133 -2 -257 -1 -275 3 -60 11 -72 34
-72 131 0 75 2 86 19 91 10 2 28 22 40 43 22 40 38 50 76 50 15 0 26 7 30 20
10 32 56 81 90 96 43 19 105 17 145 -5z m1964 -557 c9 -3 16 -17 16 -30 0 -22
-4 -24 -54 -24 -65 0 -101 -24 -116 -78 -21 -80 30 -142 117 -142 42 0 44 -1
41 -27 -2 -23 -9 -29 -39 -34 -98 -15 -197 49 -206 135 -13 112 70 202 189
205 20 1 43 -2 52 -5z m-385 -10 c30 -6 32 -9 25 -38 -3 -17 -8 -32 -9 -34 -2
-2 -20 4 -40 12 -69 29 -165 12 -165 -28 0 -7 37 -31 83 -54 95 -47 126 -83
92 -108 -26 -19 -32 -18 -129 17 -101 36 -136 67 -136 118 0 47 23 79 74 102
42 19 142 25 205 13z m-309 -118 c0 -128 -6 -152 -47 -190 -35 -32 -77 -41
-131 -26 -66 17 -73 36 -70 186 l3 129 42 3 42 3 3 -133 3 -133 25 0 c42 0 60
52 53 145 -8 109 -1 130 42 130 l35 0 0 -114z m415 -5 c0 -120 -10 -148 -68
-178 -37 -19 -227 -30 -290 -16 -36 8 -37 9 -23 29 15 20 17 21 88 7 82 -16
146 -11 183 13 48 31 20 81 -69 122 -42 20 -73 48 -64 57 3 3 36 -4 74 -16 38
-12 71 -21 74 -21 2 1 9 23 15 49 15 65 19 70 52 66 l28 -5 0 -107z m505 89
c0 -29 -1 -30 -50 -30 l-50 0 0 -35 c0 -34 1 -35 40 -35 38 0 40 -2 40 -29 0
-26 -4 -30 -40 -36 -30 -5 -40 -11 -40 -26 0 -16 7 -19 50 -19 49 0 50 -1 50
-30 l0 -30 -90 0 -90 0 0 150 0 150 90 0 90 0 0 -30z m-1411 -67 l34 -72 31
72 31 72 51 3 c50 3 51 2 58 -29 3 -17 6 -87 6 -155 l0 -124 -35 0 c-41 0 -40
0 -52 100 l-8 75 -27 -80 c-42 -126 -78 -129 -111 -7 -10 40 -23 70 -27 67 -4
-3 -11 -35 -15 -72 -9 -89 -11 -93 -53 -93 l-35 0 7 98 c3 53 9 125 13 160 l6
63 46 -3 46 -3 34 -72z m-538 36 c23 -6 51 -25 73 -49 34 -38 36 -44 36 -108
0 -64 -20 -188 -35 -212 -4 -6 -17 -15 -30 -20 -21 -8 -22 -12 -14 -52 16 -84
-22 -150 -95 -163 -19 -4 -61 2 -106 14 -95 27 -110 26 -170 -4 -59 -30 -94
-31 -136 -6 -34 21 -57 75 -69 162 -5 42 -9 47 -37 53 -48 10 -78 43 -78 86 0
51 37 85 90 83 37 -2 40 0 40 25 0 34 31 86 65 108 14 9 46 20 71 25 24 5 64
22 87 38 23 16 51 31 62 34 27 7 201 -2 246 -14z m2722 7 c29 -12 53 -37 163
-176 72 -90 73 -134 4 -237 -27 -41 -50 -80 -50 -87 0 -18 -59 -85 -88 -100
-19 -10 -69 -14 -166 -14 l-139 0 -44 41 c-58 54 -76 90 -77 157 0 70 17 120
59 170 23 27 37 59 45 98 17 82 42 118 105 147 39 18 146 19 188 1z m-1695
-342 c23 -16 30 -58 10 -70 -6 -4 -19 2 -29 14 -9 12 -30 27 -45 33 -28 10
-28 11 -10 25 25 18 46 18 74 -2z m265 -80 l32 -46 5 44 c4 38 8 43 33 46 l27
3 0 -105 0 -106 -30 0 c-24 0 -37 10 -67 51 l-38 50 -5 -53 c-5 -51 -6 -53
-37 -56 l-33 -3 0 104 c0 57 3 107 7 110 3 4 21 7 40 7 28 0 38 -7 66 -46z
m182 34 c2 -7 6 -64 8 -125 l5 -113 -34 0 -33 0 -3 118 c-2 64 -2 120 0 125 5
12 52 8 57 -5z m152 -55 l48 -68 5 60 c5 56 7 60 30 60 l25 0 0 -105 c0 -105
0 -105 -24 -102 -13 2 -27 -2 -31 -8 -12 -19 -47 8 -78 60 l-27 45 -3 -47 c-3
-47 -4 -48 -38 -48 l-34 0 0 110 0 110 39 0 c38 0 43 -4 88 -67z m-997 32 c0
-22 -4 -25 -35 -25 l-35 0 0 -85 0 -85 -35 0 -35 0 0 85 0 85 -30 0 c-25 0
-30 4 -30 25 l0 25 100 0 100 0 0 -25z m145 15 c62 -14 84 -61 47 -97 -17 -17
-17 -20 10 -65 l27 -48 -34 0 c-30 0 -37 5 -55 40 -27 53 -60 56 -60 5 0 -33
-2 -35 -35 -35 l-35 0 0 98 c0 54 3 102 7 105 9 10 81 8 128 -3z m1165 -16 c0
-24 -3 -26 -29 -21 -21 4 -37 0 -55 -14 -30 -23 -33 -50 -10 -73 27 -27 44
-20 44 20 0 33 2 35 28 32 25 -3 27 -7 30 -52 4 -56 -5 -66 -61 -66 -44 0 -92
22 -107 49 -20 39 -12 91 19 122 26 25 37 29 85 29 54 0 56 -1 56 -26z m-814
-91 c14 -49 29 -92 31 -96 3 -5 -14 -7 -38 -5 -37 3 -44 7 -49 28 -5 22 -12
25 -52 28 -42 3 -48 1 -60 -25 -10 -21 -22 -29 -46 -31 -38 -4 -39 4 -8 66 13
26 26 60 30 75 5 22 12 28 29 25 18 -2 22 -9 21 -35 -2 -43 22 -44 31 -2 5 22
16 35 38 45 18 7 35 13 39 14 4 0 19 -39 34 -87z m-385 -271 l29 -32 0 -160
c0 -171 -10 -218 -48 -239 -13 -7 -98 -11 -225 -11 -192 0 -206 1 -231 21
l-26 20 0 188 c0 200 5 221 54 241 11 5 110 8 219 7 l199 -2 29 -33z m735 5
c23 -27 24 -32 24 -205 0 -150 -3 -181 -17 -202 -9 -14 -22 -28 -27 -32 -13
-9 -418 -11 -441 -2 -37 15 -45 56 -45 233 0 167 0 170 25 200 32 37 43 39
273 37 l184 -1 24 -28z m674 13 c25 -39 -2 -150 -35 -150 -12 0 -11 -8 5 -46
29 -68 43 -169 29 -211 -16 -51 -48 -59 -219 -59 -121 1 -149 4 -171 18 -41
28 -72 95 -76 163 -15 240 -15 240 5 266 19 23 27 24 169 30 215 9 282 6 293
-11z m-2177 1 c36 -14 64 -48 71 -86 5 -23 12 -32 24 -31 12 1 18 -8 20 -34 2
-19 9 -41 15 -48 8 -10 8 -15 0 -20 -6 -4 -13 -23 -15 -42 -2 -30 -7 -35 -25
-33 -21 3 -23 -1 -23 -48 0 -56 -21 -105 -47 -113 -10 -3 -127 -7 -260 -8
l-242 -3 -26 25 c-19 19 -26 40 -31 87 -5 46 -10 60 -20 56 -10 -4 -14 5 -14
32 0 24 -6 43 -17 51 -17 13 -17 15 0 25 11 6 17 22 17 44 0 24 5 35 15 35 8
0 19 16 25 39 15 58 30 65 144 72 173 9 364 9 389 0z m2862 -9 c50 -42 55 -60
55 -192 0 -180 -20 -207 -155 -217 -59 -5 -87 -12 -113 -30 -29 -19 -48 -23
-108 -23 -71 0 -102 13 -73 31 8 5 47 9 88 9 62 0 78 4 98 21 18 18 36 22 99
24 67 2 79 6 103 29 24 24 26 34 29 122 5 118 -3 159 -33 190 -24 23 -28 24
-200 24 -173 0 -176 0 -200 -25 -24 -24 -25 -28 -25 -182 l0 -158 30 47 c36
58 54 68 121 68 45 0 50 2 39 15 -8 10 -10 29 -6 58 4 23 8 54 10 70 4 36 12
43 31 27 11 -9 14 -22 10 -37 -4 -16 -1 -23 9 -23 24 0 29 20 10 41 -24 27 -8
53 35 57 25 3 33 -1 40 -20 5 -13 29 -41 54 -61 25 -21 49 -47 53 -59 9 -30
-21 -50 -68 -46 -36 3 -38 2 -57 -43 -26 -64 -57 -83 -123 -76 -28 4 -56 11
-62 17 -16 16 -23 12 -30 -14 -3 -13 -22 -35 -41 -50 -19 -15 -35 -36 -35 -47
0 -16 -7 -19 -39 -19 -51 0 -57 11 -21 38 27 21 28 23 15 49 -11 20 -15 65
-15 164 0 235 5 239 270 239 160 -1 188 -3 205 -18z"/>
<path d="M1391 3838 c-1 -106 1 -118 18 -128 23 -12 88 -14 94 -2 2 4 -2 37
-9 74 -16 74 -7 118 23 119 10 0 2 6 -17 13 -29 10 -38 10 -51 -1 -24 -20 -36
-16 -47 15 -8 21 -11 1 -11 -90z"/>
<path d="M2122 3767 c-18 -18 -32 -36 -32 -40 0 -4 23 -7 50 -7 54 0 59 6 40
54 -12 34 -20 33 -58 -7z"/>
<path d="M2020 3740 c0 -5 5 -10 10 -10 6 0 10 5 10 10 0 6 -4 10 -10 10 -5 0
-10 -4 -10 -10z"/>
<path d="M3290 3803 c0 -57 -3 -73 -14 -73 -9 0 -16 13 -19 33 -4 32 -4 32 -5
-5 -2 -45 16 -58 82 -58 l46 0 0 65 c0 63 -1 65 -22 60 -26 -6 -40 1 -56 30
-9 16 -11 7 -12 -52z"/>
<path d="M3485 3760 c-4 -7 -3 -16 3 -22 14 -14 45 -2 40 15 -6 16 -34 21 -43
7z"/>
<path d="M3425 3710 c-3 -5 -1 -10 4 -10 6 0 11 5 11 10 0 6 -2 10 -4 10 -3 0
-8 -4 -11 -10z"/>
<path d="M3780 4085 c-15 -18 -13 -20 18 -29 22 -7 31 7 12 19 -6 4 -8 11 -5
16 10 15 -12 10 -25 -6z"/>
<path d="M3872 3755 l1 -55 42 0 c47 0 68 17 63 51 -2 17 -13 25 -38 31 -19 5
-43 13 -52 18 -14 8 -16 3 -16 -45z"/>
<path d="M610 3765 c0 -16 6 -25 15 -25 8 0 15 9 15 19 0 10 -7 21 -15 25 -11
4 -15 -1 -15 -19z"/>
<path d="M2820 4097 c-29 -10 -41 -24 -72 -86 -20 -40 -45 -82 -55 -93 -32
-36 -116 -78 -156 -78 -42 0 -50 -11 -45 -60 l3 -33 25 26 c14 14 39 29 55 33
16 4 40 13 54 20 14 8 34 14 43 14 9 0 26 13 38 29 11 17 36 36 55 42 19 7 35
19 35 25 0 7 11 25 24 41 13 16 27 45 31 66 8 41 26 60 52 55 14 -3 17 -11 15
-36 -2 -18 1 -32 7 -32 6 0 11 -7 11 -15 0 -8 -6 -15 -14 -15 -8 0 -18 -12
-24 -27 -5 -16 -19 -37 -29 -48 -20 -20 -20 -20 11 -31 45 -15 47 -57 6 -109
-17 -21 -28 -45 -25 -53 3 -7 5 -16 5 -18 0 -2 29 -4 64 -4 49 0 65 4 70 16
11 28 7 312 -5 337 -21 45 -101 60 -179 34z"/>
<path d="M2745 3824 c-16 -8 -38 -23 -48 -32 -12 -11 -37 -17 -70 -17 -37 -1
-65 -9 -95 -27 -58 -34 -44 -38 136 -38 l147 1 26 58 27 59 -37 6 c-50 8 -52
8 -86 -10z"/>
<path d="M3745 3760 c-10 -17 12 -37 25 -24 8 8 6 15 -4 23 -10 9 -16 9 -21 1z"/>
<path d="M3481 3488 c-32 -11 -41 -63 -41 -240 0 -164 6 -201 34 -220 6 -4
113 -8 237 -8 208 0 229 2 250 19 24 19 24 23 27 213 l3 193 -26 25 -27 25
-219 0 c-121 0 -228 -3 -238 -7z m189 -83 c7 -8 25 -15 40 -15 15 0 33 7 40
15 16 20 39 19 62 -2 13 -12 18 -30 18 -69 0 -36 5 -57 15 -66 59 -49 68 -75
39 -116 -19 -27 -78 -30 -106 -5 -30 27 -22 43 22 43 33 0 40 3 40 20 0 14 -7
20 -21 20 -11 0 -18 -4 -15 -9 7 -11 -52 -21 -126 -21 -62 0 -91 -7 -82 -21 7
-12 44 -11 44 1 0 6 9 10 20 10 25 0 26 -26 3 -52 -36 -40 -123 -9 -123 45 0
28 26 67 46 67 11 0 14 15 14 63 0 87 35 134 70 92z"/>
<path d="M3703 3373 l-43 -4 0 -75 0 -74 59 0 59 0 -2 68 c-2 65 -10 94 -24
90 -4 -1 -26 -3 -49 -5z"/>
<path d="M628 3286 c-17 -12 -15 -56 2 -56 6 0 30 52 30 66 0 8 -16 3 -32 -10z"/>
<path d="M758 3229 c-17 -18 -17 -19 2 -19 13 0 20 7 20 20 0 24 0 24 -22 -1z"/>
<path d="M775 3119 c-35 -22 -61 -25 -68 -6 -4 12 -27 -55 -27 -80 0 -20 179
-18 186 2 6 13 -44 106 -56 104 -3 0 -18 -9 -35 -20z"/>
<path d="M2641 2830 c0 -8 -13 -26 -29 -40 -15 -14 -22 -21 -16 -17 7 5 23 11
36 15 20 6 23 11 17 32 -4 14 -7 18 -8 10z"/>
<path d="M2667 2479 c4 -13 8 -18 11 -10 2 7 -1 18 -6 23 -8 8 -9 4 -5 -13z"/>
<path d="M2462 2460 c0 -14 2 -19 5 -12 2 6 2 18 0 25 -3 6 -5 1 -5 -13z"/>
<path d="M2484 2344 c9 -36 32 -62 45 -49 6 6 -2 23 -21 44 l-31 35 7 -30z"/>
<path d="M2676 2335 c-9 -26 -7 -32 5 -12 6 10 9 21 6 23 -2 3 -7 -2 -11 -11z"/>
<path d="M3541 2811 c-30 -30 -37 -225 -21 -563 0 -4 7 -14 16 -22 12 -13 41
-16 154 -16 200 0 184 -26 188 305 3 229 1 270 -13 291 -15 23 -19 24 -160 24
-129 0 -147 -2 -164 -19z m130 -51 c10 -6 19 -21 19 -34 0 -17 7 -26 25 -30
13 -3 39 -24 56 -46 18 -22 37 -40 43 -40 5 0 20 -10 33 -22 38 -36 30 -69
-32 -136 -30 -33 -55 -67 -55 -76 0 -10 -5 -27 -12 -39 -6 -12 -14 -38 -17
-57 -5 -29 -11 -35 -41 -41 -44 -10 -62 6 -27 22 34 15 51 59 43 108 -4 24 0
55 9 81 15 44 11 64 -20 90 -13 10 -20 11 -39 1 -13 -7 -32 -11 -42 -9 -43 8
-60 110 -23 144 13 12 18 25 15 40 -4 14 0 29 10 38 18 19 28 20 55 6z"/>
<path d="M3638 2673 c7 -3 16 -2 19 1 4 3 -2 6 -13 5 -11 0 -14 -3 -6 -6z"/>
<path d="M660 2528 c0 -9 -14 -28 -31 -43 -21 -17 -28 -30 -22 -36 6 -6 21 3
42 26 25 28 30 39 22 53 -9 15 -10 15 -11 0z"/>
<path d="M1516 2384 c-8 -22 -8 -26 4 -19 5 3 16 -10 24 -29 17 -41 42 -56 93
-56 l38 1 -31 13 c-33 15 -104 80 -104 96 0 16 -17 11 -24 -6z"/>
<path d="M3507 2070 c-14 -11 -34 -39 -46 -63 -18 -37 -19 -54 -14 -159 l6
-118 208 0 c130 0 210 4 214 10 8 13 -50 87 -75 95 -10 3 -22 19 -25 35 -4 17
-10 32 -14 34 -4 3 -33 -20 -63 -50 -31 -30 -63 -54 -72 -54 -8 0 -21 -7 -30
-15 -23 -23 -84 -47 -91 -35 -3 5 8 16 25 25 16 8 37 29 45 45 18 34 81 80
110 80 18 0 20 5 17 35 -5 44 -42 71 -42 31 0 -36 -20 -75 -41 -81 -22 -7 -39
1 -39 19 0 6 -15 16 -32 21 -28 8 -33 15 -33 40 0 28 3 30 43 33 29 2 50 11
68 29 22 21 31 24 72 20 99 -11 165 -32 173 -55 8 -22 26 -27 67 -16 31 9 30
57 -3 89 -24 25 -26 25 -213 25 -174 0 -191 -2 -215 -20z"/>
<path d="M3955 1944 c-60 -16 -100 -18 -125 -4 -17 9 -18 8 -13 -7 4 -10 12
-22 19 -28 6 -5 14 -22 18 -36 3 -14 17 -51 32 -83 l26 -57 61 3 62 3 3 92 c3
85 -7 134 -26 132 -4 0 -29 -7 -57 -15z"/>
<path d="M603 2039 c-23 -7 -40 -23 -59 -54 l-26 -45 26 -31 c86 -102 -51
-243 -145 -149 l-30 29 3 -57 3 -57 264 -3 c205 -2 266 1 273 10 4 7 8 40 7
73 0 59 0 59 -15 33 -44 -83 -150 -54 -161 44 -4 36 0 55 17 86 l23 40 -23 32
c-23 33 -74 61 -107 59 -10 0 -32 -5 -50 -10z"/>
<path d="M445 1899 c-4 -6 2 -21 14 -33 24 -26 28 -66 6 -66 -8 0 -15 -7 -15
-15 0 -18 41 -20 58 -3 20 20 15 85 -8 108 -22 22 -45 26 -55 9z"/>
<path d="M816 1894 c-10 -9 -16 -32 -15 -57 1 -40 1 -41 11 -14 6 16 20 30 34
33 13 3 24 10 24 14 0 8 -28 40 -35 40 -2 0 -11 -7 -19 -16z"/>
<path d="M825 1394 c49 -26 135 -121 135 -149 0 -22 2 -24 19 -14 30 19 51 4
51 -36 0 -22 4 -34 10 -30 6 3 10 43 10 87 0 79 -1 81 -34 113 -36 34 -82 45
-175 45 l-46 -1 30 -15z"/>
<path d="M662 1370 c-24 -16 -63 -32 -87 -36 -73 -11 -117 -77 -99 -148 8 -32
52 -36 79 -6 10 11 33 22 51 26 24 4 39 16 53 40 21 36 39 42 59 22 18 -18 14
-45 -10 -62 -18 -13 -19 -16 -6 -21 9 -4 24 -23 34 -43 11 -20 24 -40 29 -44
20 -15 55 -7 79 17 14 14 36 25 49 25 19 0 26 7 31 31 9 47 7 99 -3 99 -6 0
-32 22 -58 49 -33 33 -62 53 -91 61 -24 6 -49 13 -55 15 -7 3 -31 -8 -55 -25z"/>
<path d="M354 1155 c-30 -45 12 -98 59 -74 40 21 49 56 21 83 -23 24 -61 20
-80 -9z m64 -32 c5 -17 -26 -29 -40 -15 -6 6 -7 15 -3 22 9 14 37 9 43 -7z"/>
<path d="M690 1084 c0 -63 -17 -103 -39 -89 -7 4 -10 16 -8 27 4 14 2 16 -6 9
-7 -5 -41 -17 -75 -26 -92 -23 -115 4 -61 74 24 30 24 41 1 41 -10 0 -26 -15
-36 -35 -17 -32 -18 -41 -7 -103 25 -138 64 -164 167 -111 63 32 67 32 112 20
132 -38 142 -40 173 -31 42 12 58 37 59 87 l0 43 -45 -7 c-52 -7 -91 13 -101
52 -6 23 -11 25 -66 25 l-60 0 6 28 c3 15 2 34 -4 42 -7 11 -10 -2 -10 -46z"/>
<path d="M960 1131 c0 -5 5 -13 10 -16 6 -3 10 -2 10 4 0 5 -4 13 -10 16 -5 3
-10 2 -10 -4z"/>
<path d="M607 1083 l-26 -28 35 0 c34 0 43 15 26 43 -6 9 -15 5 -35 -15z"/>
<path d="M870 1090 c-24 -24 -25 -43 -4 -65 24 -23 66 -15 83 17 14 24 14 28
-3 47 -24 26 -50 27 -76 1z m48 -37 c5 -18 -28 -29 -38 -12 -5 7 -6 17 -3 22
7 12 35 5 41 -10z"/>
<path d="M3498 1380 c-27 -21 -41 -56 -53 -134 -4 -26 -20 -53 -50 -85 -49
-52 -72 -118 -61 -175 4 -21 25 -55 53 -86 l47 -52 50 6 c65 9 69 9 141 1 80
-8 110 10 157 101 20 38 43 83 52 99 23 43 20 113 -6 155 -12 19 -33 57 -46
83 -37 72 -86 101 -181 105 -66 3 -80 1 -103 -18z m130 -102 c7 -7 12 -22 12
-34 0 -13 4 -25 9 -28 10 -6 23 -94 22 -147 0 -29 4 -38 20 -42 11 -3 23 -14
26 -25 3 -11 13 -22 24 -25 34 -9 21 -34 -23 -45 -31 -8 -46 -8 -56 1 -12 9
-11 13 3 23 15 11 15 13 -4 23 -35 19 -42 14 -35 -28 6 -37 5 -38 -26 -45 -18
-3 -44 -6 -57 -6 -22 0 -23 2 -13 15 16 20 -9 59 -56 87 -23 13 -34 27 -34 43
0 25 22 35 78 35 44 0 52 24 18 51 -14 11 -26 27 -26 35 0 16 12 18 26 4 12
-12 44 -3 44 12 0 5 -7 16 -15 24 -31 32 -12 84 30 84 12 0 26 -5 33 -12z"/>
<path d="M3555 978 c4 -13 12 -27 18 -33 7 -7 8 -4 3 8 -3 10 -6 25 -6 33 0 8
-5 14 -11 14 -6 0 -8 -9 -4 -22z"/>
<path d="M1682 978 c4 -28 27 -34 53 -13 17 13 18 16 5 25 -8 5 -25 10 -38 10
-19 0 -23 -5 -20 -22z"/>
<path d="M2002 945 c-11 -12 -10 -15 3 -15 8 0 15 7 15 15 0 18 -2 18 -18 0z"/>
<path d="M1280 663 c-36 -13 -40 -34 -40 -209 0 -144 3 -175 16 -188 23 -23
405 -24 428 -1 20 21 28 99 24 243 -2 100 -6 124 -21 139 -16 16 -40 18 -205
20 -103 1 -194 0 -202 -4z m164 -29 c20 -8 21 -43 2 -50 -8 -3 -12 -12 -10
-19 3 -7 1 -23 -5 -34 -10 -18 -7 -21 31 -31 24 -7 54 -22 68 -35 37 -34 67
-46 95 -39 23 6 25 4 25 -30 0 -31 -3 -36 -24 -36 -13 0 -26 -6 -29 -12 -2 -8
-10 -1 -17 14 -11 24 -58 66 -64 56 -3 -6 -28 -72 -33 -90 -3 -10 3 -18 17
-23 32 -10 8 -22 -34 -17 -38 4 -36 -3 -21 93 5 29 3 31 -18 24 -48 -15 -78
-17 -92 -5 -20 16 -19 69 0 76 17 7 21 64 5 64 -5 0 -10 7 -10 15 0 18 12 19
28 3 8 -8 14 -5 22 16 5 15 10 31 10 36 0 5 8 14 18 19 21 13 17 12 36 5z
m-54 -297 c0 -7 -6 -22 -14 -33 -14 -18 -15 -18 -21 -1 -4 9 -5 24 -1 32 7 18
36 20 36 2z"/>
<path d="M2014 660 c-12 -5 -25 -13 -28 -18 -12 -19 -8 -363 5 -378 9 -11 50
-14 214 -14 176 0 204 2 216 17 11 12 14 58 14 195 0 166 -1 181 -19 194 -16
11 -59 14 -200 13 -100 0 -191 -4 -202 -9z m304 -53 c2 -10 -3 -26 -12 -36
-14 -15 -14 -19 0 -39 19 -27 11 -42 -22 -42 -13 0 -24 -4 -24 -10 0 -5 14
-10 31 -10 31 0 32 -1 27 -38 -5 -36 -3 -39 26 -51 l31 -13 -34 -10 c-60 -17
-75 -9 -81 42 -5 45 -5 45 -44 44 -43 -2 -56 -15 -56 -61 0 -25 -5 -32 -22
-35 -37 -5 -35 -42 1 -58 49 -20 36 -28 -44 -27 -64 1 -74 4 -69 17 4 8 9 34
12 57 4 39 6 42 36 45 31 3 32 4 24 35 -7 26 -13 32 -31 30 -16 -1 -23 4 -25
21 -3 19 1 22 32 22 31 0 36 -3 36 -22 l1 -23 12 23 c14 24 68 72 105 91 12 6
22 20 22 29 0 41 61 57 68 19z"/>
<path d="M2085 325 c-5 -11 -10 -24 -13 -30 -3 -5 3 -3 13 7 9 9 15 22 12 30
-3 9 -7 7 -12 -7z"/>
<path d="M2980 671 c-14 -4 -81 -8 -149 -9 -158 -2 -161 -4 -161 -115 l0 -80
23 25 c13 14 35 29 48 33 13 4 33 19 45 32 17 21 25 24 52 18 18 -4 40 -18 49
-32 15 -23 15 -27 1 -56 -9 -18 -19 -44 -22 -60 -9 -38 -41 -67 -74 -67 -35 0
-52 16 -52 49 0 31 87 114 113 107 13 -3 17 0 15 12 -6 30 -36 25 -53 -7 -12
-24 -22 -31 -44 -31 -20 0 -37 -10 -55 -31 -41 -49 -32 -125 22 -181 24 -26
31 -28 114 -28 57 0 87 4 83 10 -3 6 3 10 13 10 34 0 43 22 36 89 -6 57 -5 64
19 89 28 29 29 76 1 65 -18 -7 -58 77 -43 92 7 7 14 4 20 -7 17 -31 32 -21 25
16 -6 29 -3 37 16 50 21 15 21 16 3 15 -11 0 -31 -4 -45 -8z"/>
<path d="M3063 668 c17 -47 17 -56 1 -60 -14 -3 -14 -5 4 -21 20 -19 21 -18
28 28 5 35 3 49 -7 56 -20 13 -32 11 -26 -3z"/>
<path d="M2807 439 c-9 -6 -17 -14 -17 -19 0 -16 30 -11 37 5 8 21 1 25 -20
14z"/>
<path d="M3035 400 c-3 -6 -9 -38 -13 -72 -7 -60 -9 -63 -37 -69 -22 -5 -12
-7 33 -8 57 -1 63 1 71 23 6 14 6 40 0 67 -14 59 -38 86 -54 59z"/>
<path d="M580 650 c-113 -5 -115 -5 -130 -33 -14 -26 -14 -29 3 -38 12 -7 17
-22 17 -49 l0 -40 44 0 c35 0 47 5 60 25 21 31 67 55 94 49 14 -4 24 0 31 14
14 27 45 36 71 22 27 -14 25 -33 -5 -61 -45 -43 -34 -49 80 -49 l105 0 0 40
c0 29 4 40 15 40 20 0 19 33 -2 59 -16 19 -29 21 -143 24 -69 1 -177 0 -240
-3z"/>
<path d="M661 471 c-10 -6 -10 -10 -1 -16 13 -8 24 -1 19 14 -3 6 -10 7 -18 2z"/>
<path d="M470 443 c3 -48 1 -55 -16 -49 -14 5 -16 -2 -12 -60 3 -42 9 -69 19
-75 7 -5 120 -9 250 -9 270 0 260 -3 267 85 4 44 1 56 -12 61 -10 4 -16 18
-16 40 l0 34 -106 0 c-97 0 -106 -1 -99 -17 4 -10 9 -47 12 -82 5 -57 9 -65
34 -80 41 -23 36 -31 -21 -31 -50 0 -50 0 -51 33 -1 44 -23 104 -33 89 -4 -7
-18 -12 -31 -12 -42 0 -73 21 -89 61 -15 36 -19 39 -57 39 -38 0 -40 -2 -39
-27z"/>
<path d="M3585 430 c-3 -5 -1 -10 4 -10 6 0 11 5 11 10 0 6 -2 10 -4 10 -3 0
-8 -4 -11 -10z"/>
</g>
</svg>
